<svg width="16" height="15" viewBox="0 0 16 15" fill="none" xmlns="http://www.w3.org/2000/svg">
<path d="M0 15C0 13.4845 0.602039 12.031 1.67368 10.9594C2.74531 9.88775 4.19876 9.28571 5.71429 9.28571C7.22981 9.28571 8.68326 9.88775 9.7549 10.9594C10.8265 12.031 11.4286 13.4845 11.4286 15H0ZM5.71429 8.57143C3.34643 8.57143 1.42857 6.65357 1.42857 4.28571C1.42857 1.91786 3.34643 0 5.71429 0C8.08214 0 10 1.91786 10 4.28571C10 6.65357 8.08214 8.57143 5.71429 8.57143ZM12.8571 11.4286H15.7143V12.8571H12.8571V11.4286ZM10.7143 7.85714H15.7143V9.28571H10.7143V7.85714ZM12.1429 4.28571H15.7143V5.71429H12.1429V4.28571Z" fill="#666666"/>
</svg>
