<svg width="20" height="20" viewBox="0 0 20 20" fill="none" xmlns="http://www.w3.org/2000/svg">
<path d="M3.10349 4.3845L0 1.3322L1.35413 0L4.45666 3.05324H19.043C19.1921 3.05323 19.3392 3.08752 19.4725 3.15338C19.6058 3.21924 19.7216 3.31485 19.8107 3.43256C19.8997 3.55028 19.9596 3.68685 19.9855 3.83137C20.0114 3.97589 20.0025 4.12436 19.9597 4.26493L17.663 11.7968C17.6039 11.9909 17.4828 12.161 17.3176 12.2819C17.1525 12.4028 16.9521 12.4681 16.7462 12.4681H5.01745V14.3511H15.5442V16.2341H4.06047C3.80666 16.2341 3.56325 16.1349 3.38378 15.9583C3.20431 15.7817 3.10349 15.5423 3.10349 15.2926V4.3845ZM4.53896 20C4.15825 20 3.79313 19.8512 3.52393 19.5864C3.25472 19.3215 3.10349 18.9623 3.10349 18.5878C3.10349 18.2132 3.25472 17.854 3.52393 17.5892C3.79313 17.3243 4.15825 17.1755 4.53896 17.1755C4.91967 17.1755 5.28479 17.3243 5.55399 17.5892C5.82319 17.854 5.97443 18.2132 5.97443 18.5878C5.97443 18.9623 5.82319 19.3215 5.55399 19.5864C5.28479 19.8512 4.91967 20 4.53896 20ZM16.0227 20C15.642 20 15.2769 19.8512 15.0077 19.5864C14.7385 19.3215 14.5873 18.9623 14.5873 18.5878C14.5873 18.2132 14.7385 17.854 15.0077 17.5892C15.2769 17.3243 15.642 17.1755 16.0227 17.1755C16.4034 17.1755 16.7685 17.3243 17.0378 17.5892C17.307 17.854 17.4582 18.2132 17.4582 18.5878C17.4582 18.9623 17.307 19.3215 17.0378 19.5864C16.7685 19.8512 16.4034 20 16.0227 20Z" fill="#023047"/>
</svg>
