<svg width="21" height="15" viewBox="0 0 21 15" fill="none" xmlns="http://www.w3.org/2000/svg">
<path d="M14.9941 2.8114H17.8055L20.6169 6.61241V12.1827H18.7099C18.5985 12.9646 18.2087 13.68 17.6122 14.1975C17.0157 14.7151 16.2524 15 15.4627 15C14.673 15 13.9097 14.7151 13.3132 14.1975C12.7167 13.68 12.3269 12.9646 12.2155 12.1827H7.46426C7.35286 12.9646 6.9631 13.68 6.36658 14.1975C5.77006 14.7151 5.00684 15 4.2171 15C3.42736 15 2.66414 14.7151 2.06762 14.1975C1.4711 13.68 1.08134 12.9646 0.969933 12.1827H0V0.937133C0 0.68859 0.0987333 0.450227 0.27448 0.27448C0.450226 0.0987336 0.68859 0 0.937133 0H14.057C14.3055 0 14.5439 0.0987336 14.7197 0.27448C14.8954 0.450227 14.9941 0.68859 14.9941 0.937133V2.8114ZM14.9941 4.68567V7.49707H18.7427V7.22998L16.8609 4.68567H14.9941Z" fill="#666666"/>
</svg>
