<svg width="18" height="15" viewBox="0 0 18 15" fill="none" xmlns="http://www.w3.org/2000/svg">
<path d="M11.0526 4.88265e-06C11.6071 -6.10874e-05 12.1517 0.145846 12.6319 0.423055C13.1121 0.700265 13.5108 1.09901 13.788 1.57918C14.0651 2.05936 14.211 2.60405 14.2109 3.15849C14.2108 3.71292 14.0647 4.25756 13.7874 4.73764L17.3684 4.73685V6.31579H15.7895V14.2105C15.7895 14.4199 15.7063 14.6207 15.5582 14.7688C15.4102 14.9168 15.2094 15 15 15H2.36842C2.15904 15 1.95823 14.9168 1.81018 14.7688C1.66212 14.6207 1.57895 14.4199 1.57895 14.2105V6.31579H0V4.73685L3.58105 4.73764C3.18936 4.05939 3.0637 3.25979 3.22846 2.49409C3.39322 1.72839 3.83664 1.05124 4.47263 0.594125C5.10862 0.137008 5.89179 -0.0674559 6.67006 0.0204354C7.44834 0.108327 8.16618 0.482301 8.68421 1.06974C8.97994 0.732937 9.34426 0.463247 9.75274 0.27875C10.1612 0.094254 10.6044 -0.000784933 11.0526 4.88265e-06ZM9.47368 6.31579H7.89473V14.2105H9.47368V6.31579ZM6.31579 1.57895C5.90606 1.57712 5.51167 1.73463 5.21593 2.0182C4.92019 2.30177 4.74626 2.6892 4.73089 3.09864C4.71551 3.50808 4.8599 3.90746 5.13354 4.21241C5.40719 4.51736 5.78866 4.704 6.19737 4.7329L6.31579 4.73685H7.89473V3.1579C7.89475 2.78058 7.75965 2.41573 7.51389 2.12942C7.26813 1.84311 6.92796 1.65427 6.555 1.59711L6.43342 1.5829L6.31579 1.57895ZM11.0526 1.57895C10.6543 1.57883 10.2706 1.72927 9.97851 2.00013C9.68642 2.27099 9.5075 2.64225 9.47763 3.03948L9.47368 3.1579V4.73685H11.0526C11.451 4.73697 11.8347 4.58652 12.1267 4.31566C12.4188 4.0448 12.5978 3.67355 12.6276 3.27632L12.6316 3.1579C12.6316 2.73914 12.4652 2.33752 12.1691 2.04141C11.873 1.7453 11.4714 1.57895 11.0526 1.57895Z" fill="white"/>
</svg>
