<svg width="24" height="15" viewBox="0 0 24 15" fill="none" xmlns="http://www.w3.org/2000/svg">
<path d="M22.3778 0H1.79682C1.00119 0 0.356201 0.644986 0.356201 1.44062V13.5594C0.356201 14.355 1.00119 15 1.79682 15H22.3778C23.1735 15 23.8184 14.355 23.8184 13.5594V1.44062C23.8184 0.644986 23.1735 0 22.3778 0Z" fill="url(#paint0_linear_0_11)"/>
<path fill-rule="evenodd" clip-rule="evenodd" d="M6.61363 7.35678L6.7181 6.94439C7.11949 6.82342 7.93877 6.76844 8.09273 7.20282C8.18071 7.45575 7.92778 8.50597 7.87829 8.81389L7.48789 8.81939C7.39992 8.70942 7.4714 8.91287 7.41091 8.64344C7.03701 8.97885 6.23973 8.92386 6.30021 8.24754C6.36069 7.57672 6.94354 7.6647 7.57587 7.56573C7.56487 7.13684 7.02602 7.25231 6.60813 7.35128L6.61363 7.35678ZM9.55534 7.2908C9.19794 7.2908 9.14295 7.21382 8.82953 7.35128C8.86802 7.74168 9.07147 7.58772 9.3519 7.77467C9.88525 8.12658 9.31341 9.21529 8.04324 8.74791L8.11473 8.35202C8.47213 8.4235 8.65358 8.49498 8.92851 8.34102C8.99449 7.78567 8.01025 8.14857 8.28518 7.25781C8.43364 6.77394 9.08797 6.83992 9.62682 6.88941L9.54984 7.2908H9.55534ZM4.0788 6.44952L4.92008 6.47702L5.00805 7.79666L5.46443 6.74095C5.61839 6.36155 5.51392 6.44402 6.48166 6.45502L6.04728 8.81389L5.5744 8.80839L5.83283 7.11485L5.13452 8.81939L4.56817 8.8029C4.55168 8.47298 4.52418 7.31279 4.43621 7.09285L4.15028 8.80839L3.65541 8.8029L4.0788 6.44952ZM12.1012 11.4587L12.3321 11.1838C11.8702 11.1233 11.7877 11.2552 11.5788 10.8813L12.64 10.8703C12.706 10.7604 12.816 10.6559 12.871 10.5294C11.6613 10.447 11.3204 10.7549 11.1279 10.227H13.0689L13.2833 9.8916L10.886 9.88061L10.776 9.60018L13.3603 9.58919C13.5088 9.50671 13.5088 9.41323 13.5473 9.24278L11.1004 9.23728C10.6605 9.24278 10.6331 9.34175 10.5506 8.94036H13.6298L13.7287 8.59945L12.827 8.58845L12.783 8.81939L12.2661 8.7974L12.5905 6.87841L13.0799 6.94439C13.0799 6.95539 13.0909 6.99388 13.0909 7.01037C13.0909 7.02137 13.0964 7.03787 13.0964 7.04336L13.1239 7.14234C13.2614 6.97738 13.3493 6.85641 13.6682 6.86741L13.5033 7.31279C13.4098 7.43376 13.1349 7.2963 13.0194 7.62621L13.5583 7.6482C13.6188 7.3018 13.6847 7.19732 13.7837 6.9169L13.7892 6.75194L10.4186 6.75744L10.4076 6.87841C10.5891 6.87841 10.5836 6.84542 10.688 6.93339L10.6386 7.25781C10.2976 7.34029 10.3086 7.13684 10.2756 7.58222C10.3251 7.6647 10.2647 7.62071 10.3691 7.6482L10.5836 7.6537C10.93 6.5265 11.9637 6.77394 12.2001 7.12584C12.3266 7.31279 12.4531 7.92863 12.1397 7.97812L11.0894 7.98911C11.1389 8.54446 11.7767 8.429 12.1891 8.29153C12.1726 8.52247 12.1891 8.70942 11.9747 8.7864C11.8042 8.84688 11.4468 8.83039 11.2599 8.7864C10.798 8.68193 10.6001 8.45099 10.5671 7.95062L10.3691 7.94512C10.1877 7.86265 10.3306 7.94512 10.2372 7.71968C10.1602 8.18156 9.95124 8.47848 10.5231 8.4125C10.4901 8.68743 10.5286 8.7809 10.2262 8.81389C9.3464 8.91836 9.63232 8.33002 9.77528 7.54373C10.0007 6.29007 9.82477 6.44402 10.4626 6.45502L13.7397 6.46052L13.6737 6.11961L10.5066 6.10861L10.5671 5.83369L13.5638 5.81719C13.4868 5.34982 13.4703 5.46529 12.3816 5.46529H10.721C10.8365 5.06389 10.776 5.17386 11.8537 5.17386H13.3108L13.1569 4.82746L11.0454 4.82196L11.1884 4.53603L12.9534 4.52504C12.728 4.06316 12.739 4.19512 11.4908 4.17313C11.6503 3.77724 11.9307 3.87621 12.4201 3.87621C12.2826 3.65627 12.1836 3.67276 12.1012 3.48581C11.8977 3.38134 11.7163 3.19439 11.5128 3.05143C9.95673 1.95172 7.8453 1.83625 6.15175 2.66103C4.62865 3.39784 3.13305 5.10238 3.14955 7.46125C3.17154 10.8319 6.12975 13.2897 9.47836 12.7179C11.0509 12.4484 11.4468 11.8106 12.0957 11.4532L12.1012 11.4587Z" fill="#E41D2C"/>
<path fill-rule="evenodd" clip-rule="evenodd" d="M15.6915 6.9282C17.3961 6.58179 17.1157 7.42306 16.9782 8.10488C16.9342 8.30833 16.9342 8.70972 16.7748 8.81969C16.7363 8.81969 16.5108 8.82519 16.4888 8.81419C16.3349 8.75371 16.4064 8.93516 16.3844 8.65473C15.9225 8.91866 15.1912 8.97915 15.2792 8.24234C15.3506 7.654 15.9445 7.56053 16.5493 7.58802C16.5273 7.15364 16.1314 7.22512 15.5816 7.36258L15.697 6.9282H15.6915ZM17.3741 6.87871L17.8305 6.88421C17.836 6.8952 17.8415 6.9117 17.8415 6.9227L17.913 7.12614C17.9954 6.99968 18.1494 6.88971 18.3913 6.88421L18.3253 7.2746L18.0999 7.36258C17.649 7.51104 17.6765 8.07739 17.5555 8.81969H17.0442L17.3741 6.87871ZM19.7989 6.46082H20.2663L19.8649 8.82519C19.3426 8.83069 19.469 8.85818 19.3041 8.66023C18.9632 9.1661 17.9404 8.69872 18.2539 7.654C18.4848 6.87321 19.2656 6.66427 19.6505 7.12614L19.8044 6.45532L19.7989 6.46082ZM12.1065 3.49161C12.189 3.67856 12.2935 3.66207 12.4254 3.88201C11.936 3.88201 11.6556 3.77754 11.4962 4.17893C12.7443 4.20092 12.7333 4.06896 12.9588 4.53083L11.1937 4.54183L11.0508 4.82776L13.1622 4.83325L13.3162 5.17966H11.8591C10.7869 5.17966 10.8418 5.07519 10.7264 5.47108H12.3869C13.4756 5.47108 13.4921 5.35561 13.5691 5.82299L10.5724 5.83949L10.5119 6.11441L13.6791 6.12541L13.7451 6.46632L10.4679 6.46082L10.424 6.76874L13.7946 6.76324L13.7891 6.9282C14.042 6.68626 13.998 6.55979 14.4709 6.42233C14.8613 6.31236 15.1087 6.39484 15.4936 6.47732L15.4111 6.98318C14.7513 6.78523 14.3224 6.83472 14.1685 7.51654C13.998 8.24784 14.5753 8.52277 15.1857 8.23135C15.1307 8.76471 15.0427 8.89667 14.4159 8.81419C13.9815 8.75921 13.8495 8.55026 13.6571 8.29183H12.8708L12.8268 8.59425L13.7286 8.60525L13.6296 8.94616H10.5504C10.6329 9.34755 10.6604 9.24858 11.1003 9.24308L13.5471 9.24858C13.5031 9.41353 13.5086 9.51251 13.3602 9.59498L10.7759 9.60598L10.8858 9.88641L13.2832 9.8974L13.0687 10.2328H11.1278C11.3202 10.7552 11.6611 10.4528 12.8708 10.5352C12.8158 10.6617 12.7058 10.7662 12.6399 10.8761L11.5786 10.8871C11.7821 11.2555 11.8701 11.1291 12.3319 11.1896L12.101 11.4645C12.8873 12.0418 13.4976 12.5257 14.7678 12.7456C15.9225 12.9436 17.1267 12.7236 18.0559 12.2673C22.0808 10.2823 21.9709 4.56383 18.0229 2.67233C16.6043 1.99601 14.7238 1.93553 13.2557 2.70532C12.5464 3.07372 12.3759 3.33765 12.112 3.49711L12.1065 3.49161Z" fill="#F8B02B"/>
<path fill-rule="evenodd" clip-rule="evenodd" d="M3.65527 8.80858L4.15014 8.81407L4.43607 7.09853C4.52404 7.31847 4.55153 8.47866 4.56803 8.80858L5.13438 8.82507L5.83269 7.12053L5.57426 8.81407L6.04714 8.81957L6.48152 6.4607C5.51378 6.4497 5.61825 6.36723 5.46429 6.74663L5.00791 7.80234L4.91994 6.4827L4.07866 6.4552L3.65527 8.80858ZM18.9742 8.37419C18.5618 7.9508 18.9137 7.24699 19.2986 7.34047C19.678 7.43394 19.6065 8.36319 18.9742 8.37419ZM19.645 7.12602C19.2601 6.66415 18.4848 6.87309 18.2484 7.65388C17.935 8.69311 18.9577 9.16598 19.2986 8.66011C19.4636 8.85806 19.3371 8.82507 19.8595 8.82507L20.2608 6.4607H19.7935L19.6395 7.13152L19.645 7.12602ZM15.8675 8.37969C15.7905 8.01129 16.1314 7.86833 16.4559 7.93431C16.4724 8.30821 16.2084 8.51165 15.8675 8.37969ZM15.6916 6.93358L15.5761 7.36796C16.1259 7.23599 16.5273 7.16451 16.5438 7.5934C15.939 7.56591 15.3452 7.65938 15.2737 8.24772C15.1802 8.98453 15.917 8.92404 16.3789 8.66011C16.4009 8.94054 16.3294 8.75909 16.4834 8.81957C16.5053 8.83057 16.7308 8.82507 16.7693 8.82507C16.9342 8.7206 16.9342 8.31371 16.9727 8.11026C17.1157 7.42294 17.3906 6.58717 15.6861 6.93358H15.6916ZM7.48775 7.91781C7.49875 8.10476 7.46576 8.24772 7.34479 8.3412C7.26231 8.40168 7.01488 8.47316 6.9159 8.37969C6.60799 8.09926 7.18533 7.91231 7.48225 7.91781H7.48775ZM6.61348 7.35696C7.03137 7.25799 7.57023 7.14252 7.58123 7.57141C6.94889 7.67038 6.36605 7.5824 6.30557 8.25322C6.23958 8.92954 7.03687 8.98453 7.41627 8.64912C7.47675 8.91855 7.40527 8.7151 7.49325 8.82507L7.88365 8.81957C7.93313 8.50616 8.18607 7.46143 8.09809 7.2085C7.94413 6.76862 7.13035 6.8236 6.72346 6.95007L6.61898 7.36246L6.61348 7.35696ZM11.1718 7.63189C11.2432 7.35146 11.3642 7.23599 11.6886 7.27998C11.8041 7.44494 11.8041 7.39545 11.8261 7.63189H11.1718ZM10.5889 7.65938L10.5669 7.9563C10.5999 8.45667 10.8034 8.68211 11.2597 8.79208C11.4467 8.83607 11.8041 8.85256 11.9746 8.79208C12.189 8.7206 12.1725 8.52815 12.189 8.29721C11.7766 8.43467 11.1388 8.55014 11.0893 7.99479L12.1395 7.9838C12.4529 7.93431 12.3265 7.32397 12.2 7.13152C11.9636 6.77962 10.9298 6.53218 10.5834 7.65938H10.5889ZM13.7891 6.92808C13.6901 7.2085 13.6241 7.31297 13.5636 7.65938V7.9618L13.6571 8.29721C13.8496 8.55564 13.9815 8.76459 14.4159 8.81957C15.0427 8.90205 15.1307 8.77009 15.1857 8.23673C14.5699 8.52815 13.998 8.25322 14.1685 7.52192C14.3279 6.8346 14.7568 6.79061 15.4111 6.98856L15.4936 6.4827C15.1087 6.40572 14.8613 6.32324 14.4709 6.42771C13.998 6.55968 14.042 6.69164 13.7891 6.93358V6.92808ZM9.62668 6.88959C9.08782 6.8456 8.4335 6.77412 8.28504 7.25799C8.01011 8.14875 8.98885 7.78585 8.92837 8.3412C8.64794 8.49516 8.47199 8.42368 8.11458 8.3522L8.0431 8.74809C9.31326 9.21547 9.87961 8.13226 9.35175 7.77485C9.07133 7.5879 8.86788 7.74736 8.82939 7.35146C9.14281 7.2085 9.1923 7.29098 9.5552 7.29098L9.63218 6.88959H9.62668Z" fill="#FEFEFE"/>
<path fill-rule="evenodd" clip-rule="evenodd" d="M10.2427 7.72539L10.2812 7.59343C10.3141 7.14805 10.3031 7.35149 10.6441 7.26901L10.6935 6.9446C10.5891 6.85662 10.5946 6.88961 10.4131 6.88961L10.4241 6.76865L10.4681 6.46073C9.83027 6.44973 10.0062 6.29577 9.78079 7.54944C9.63783 8.33573 9.3519 8.92407 10.2317 8.8196C10.5286 8.78661 10.4956 8.69313 10.5286 8.41821C9.96224 8.48419 10.1712 8.18727 10.2427 7.72539ZM12.827 8.59966L12.871 8.29724L12.9259 7.96733L13.0249 7.63742C13.1459 7.3075 13.4208 7.44497 13.5088 7.324L13.6737 6.87862C13.3493 6.86762 13.2614 6.98859 13.1294 7.15354L13.1019 7.05457C13.1019 7.04907 13.0964 7.03258 13.0964 7.02158C13.0964 7.01058 13.0854 6.96659 13.0854 6.9556L12.596 6.88961L12.2716 8.8086L12.7885 8.8306L12.8325 8.59966H12.827ZM17.0444 8.8196H17.5557C17.6767 8.0773 17.6492 7.51095 18.1001 7.36249L18.3255 7.27451L18.3915 6.88412C18.1496 6.88961 17.9956 6.99959 17.9131 7.12605L17.8416 6.92261C17.8361 6.91161 17.8361 6.89511 17.8306 6.88412L17.3743 6.87862L17.0444 8.8196Z" fill="#FEFEFE"/>
<path fill-rule="evenodd" clip-rule="evenodd" d="M18.9743 8.37421C19.6121 8.36321 19.6836 7.43396 19.2987 7.34048C18.9083 7.24701 18.5619 7.95082 18.9743 8.37421Z" fill="#F8B02B"/>
<path fill-rule="evenodd" clip-rule="evenodd" d="M7.48781 7.91858C7.19089 7.91308 6.61355 8.10003 6.92146 8.38045C7.02044 8.46843 7.26787 8.39695 7.35035 8.34196C7.47132 8.25399 7.49881 8.10553 7.49331 7.91858H7.48781ZM12.8709 8.29248L13.6572 8.29797L13.5637 7.96256H12.9259L12.8709 8.29248Z" fill="#E41D2C"/>
<path fill-rule="evenodd" clip-rule="evenodd" d="M15.8675 8.37964C16.2139 8.5061 16.4723 8.30816 16.4558 7.93426C16.1259 7.87377 15.7905 8.01673 15.8675 8.37964ZM12.9258 7.96175H13.5636V7.65933L13.0248 7.63184L12.9258 7.96175Z" fill="#F8B02B"/>
<path fill-rule="evenodd" clip-rule="evenodd" d="M11.1718 7.63248H11.8261C11.8096 7.40154 11.8041 7.44553 11.6886 7.28057C11.3642 7.23658 11.2432 7.35205 11.1718 7.63248Z" fill="#E41D2C"/>
<path fill-rule="evenodd" clip-rule="evenodd" d="M10.2426 7.72535C10.336 7.95079 10.1931 7.86832 10.3745 7.95079L10.5725 7.95629L10.5945 7.65937L10.38 7.65387C10.27 7.63188 10.3305 7.67037 10.2865 7.58789L10.2481 7.71986L10.2426 7.72535Z" fill="#F8B02B"/>
<defs>
<linearGradient id="paint0_linear_0_11" x1="12.0871" y1="0.00208944" x2="12.0871" y2="15.0032" gradientUnits="userSpaceOnUse">
<stop stop-color="#1D4C80"/>
<stop offset="1" stop-color="#173A63"/>
</linearGradient>
</defs>
</svg>
