<svg width="36" height="10" viewBox="0 0 36 10" fill="none" xmlns="http://www.w3.org/2000/svg">
<path fill-rule="evenodd" clip-rule="evenodd" d="M28.0585 1.7651C27.1762 1.7651 26.4703 2.00039 25.8821 2.11803L25.7056 3.47096C25.9997 3.35331 26.8232 3.11802 27.5291 3.0592C28.235 3.0592 28.6467 3.17684 28.5291 3.82389C26.4115 3.82389 24.9997 4.23565 24.7056 5.6474C24.2939 8.00031 26.8821 8.05914 27.8821 7.00033L27.7644 7.64738H29.6467L30.4703 3.82389C30.7644 2.23568 29.3526 1.70627 28.0585 1.7651ZM28.1762 5.70622C28.0585 6.17681 27.6468 6.35328 27.1762 6.4121C26.7644 6.4121 26.4115 6.17681 26.6468 5.70622C26.8821 5.35329 27.4115 5.35329 27.8232 5.35329H28.2938C28.235 5.29446 28.1762 5.52976 28.1762 5.70622Z" fill="#32A6CE"/>
<path fill-rule="evenodd" clip-rule="evenodd" d="M25.7056 3.47077C25.9997 3.35312 26.8232 3.11783 27.5291 3.05901C28.235 3.05901 28.6467 3.17665 28.5291 3.82371C26.4115 3.82371 24.9997 4.23546 24.7056 5.64721C24.2939 8.00012 26.8821 8.05895 27.8821 7.00014L27.7644 7.64719H29.6467L30.4703 3.82371C30.8232 2.23549 29.3526 1.82373 28.0585 1.82373L25.7056 3.47077ZM28.1762 5.70603C28.0585 6.17662 27.6468 6.35309 27.1762 6.41191C26.7644 6.41191 26.4115 6.17662 26.6468 5.70603C26.8821 5.3531 27.4115 5.3531 27.8232 5.3531H28.2938C28.235 5.29427 28.1762 5.52957 28.1762 5.70603Z" fill="#1A80AD"/>
<path fill-rule="evenodd" clip-rule="evenodd" d="M32.0584 0L30.5291 7.64696H32.4114L33.9996 0H32.0584Z" fill="#32A6CE"/>
<path fill-rule="evenodd" clip-rule="evenodd" d="M33.4114 0L30.5291 7.64696H32.4114L33.9996 0H32.0584H33.4114Z" fill="#1A80AD"/>
<path fill-rule="evenodd" clip-rule="evenodd" d="M23.2939 0H19.8233L18.2939 7.64696H20.3527L20.8821 5.29405H22.3527C23.7645 5.29405 24.9409 4.47053 25.235 2.99996C25.5291 1.2941 24.2939 0 23.2939 0ZM23.2351 2.64703C23.1174 3.17643 22.588 3.52937 22.0586 3.52937H21.1174L21.5292 1.76468H22.5292C23.0586 1.76468 23.3527 2.11762 23.2351 2.64703Z" fill="#32A6CE"/>
<path fill-rule="evenodd" clip-rule="evenodd" d="M23.2939 0H20.941L18.2351 7.64696H20.2939L20.8233 5.29405H22.2939C23.7056 5.29405 24.8821 4.47053 25.1762 2.99996C25.5291 1.2941 24.2939 0 23.2939 0ZM23.235 2.64703C23.1174 3.17643 22.588 3.52937 22.0586 3.52937H21.1174L21.5292 1.76468H22.5292C23.0586 1.76468 23.3527 2.11762 23.235 2.64703Z" fill="#1A80AD"/>
<path fill-rule="evenodd" clip-rule="evenodd" d="M9.70582 1.7651C8.82348 1.7651 8.1176 2.00039 7.5882 2.11803L7.41173 3.47096C7.64702 3.35331 8.52936 3.11802 9.23524 3.0592C9.94111 3.0592 10.3529 3.17684 10.2352 3.82389C8.17643 3.82389 6.76468 4.23565 6.47056 5.6474C6.05881 8.00031 8.58819 8.05914 9.58817 7.00033L9.47053 7.64738H11.3529L12.1764 3.82389C12.4705 2.23568 10.9999 1.70627 9.70582 1.7651ZM9.88229 5.70622C9.76464 6.17681 9.35288 6.35328 8.8823 6.4121C8.47054 6.4121 8.1176 6.17681 8.41172 5.70622C8.64701 5.35329 9.17641 5.35329 9.52935 5.35329H9.99993C9.94111 5.29446 9.88229 5.52976 9.88229 5.70622Z" fill="#21789E"/>
<path fill-rule="evenodd" clip-rule="evenodd" d="M7.47057 3.47077C7.70586 3.35312 8.5882 3.11783 9.29407 3.05901C9.99995 3.05901 10.4117 3.17665 10.2941 3.82371C8.23526 3.82371 6.82352 4.23546 6.5294 5.64721C6.11764 8.00012 8.64702 8.05895 9.64701 7.00014L9.47054 7.64719H11.3529L12.1764 3.82371C12.5293 2.23549 11.0588 1.82373 9.76466 1.82373L7.47057 3.47077ZM9.8823 5.70603C9.76466 6.17662 9.3529 6.35309 8.88231 6.41191C8.47055 6.41191 8.11762 6.17662 8.41173 5.70603C8.64702 5.3531 9.17643 5.3531 9.52937 5.3531H9.99995C9.94112 5.29427 9.8823 5.52957 9.8823 5.70603Z" fill="#1A5B80"/>
<path fill-rule="evenodd" clip-rule="evenodd" d="M12.941 1.76465H14.8233L15.1175 5.05872L16.9998 1.76465H18.9409L14.4704 9.99984H12.3528L13.7057 7.52928L12.941 1.76465Z" fill="#21789E"/>
<path fill-rule="evenodd" clip-rule="evenodd" d="M14.8233 1.88229L15.1175 5.11755L16.9998 1.76465H18.9409L14.4704 9.99984H12.3528L13.7057 7.58811" fill="#1A5B80"/>
<path fill-rule="evenodd" clip-rule="evenodd" d="M5.05876 0H1.52939L0 7.64696H2.0588L2.5882 5.29405H4.05877C5.47052 5.29405 6.64698 4.47053 6.94109 2.99996C7.29403 1.2941 6.05875 0 5.05876 0ZM4.99994 2.64703C4.88229 3.17643 4.35289 3.52937 3.82348 3.52937H2.88232L3.29408 1.76468H4.29406C4.82347 1.76468 5.11758 2.11762 4.99994 2.64703Z" fill="#21789E"/>
<path fill-rule="evenodd" clip-rule="evenodd" d="M5.05876 0H3.47054L0 7.64696H2.0588L2.5882 5.29405H4.05877C5.47052 5.29405 6.64698 4.47053 6.94109 2.99996C7.29403 1.2941 6.05875 0 5.05876 0ZM4.99994 2.64703C4.88229 3.17643 4.35289 3.52937 3.82348 3.52937H2.88232L3.29408 1.76468H4.29406C4.82347 1.76468 5.11758 2.11762 4.99994 2.64703Z" fill="#1A5B80"/>
<path fill-rule="evenodd" clip-rule="evenodd" d="M9.35287 3.82345C7.76465 3.94109 6.70584 4.41167 6.47055 5.58813C6.05879 7.94104 8.58817 7.99986 9.58816 6.94105L9.47052 7.64693H11.3528L11.647 6.23518L9.35287 3.82345ZM9.88227 5.70578C9.76463 6.17636 9.35287 6.35283 8.88229 6.41165C8.47053 6.41165 8.11759 6.17636 8.41171 5.70578C8.647 5.35284 9.1764 5.35284 9.52934 5.35284H9.99992C9.9411 5.29402 9.88227 5.52931 9.88227 5.70578ZM15.2351 4.9999L15.1175 5.17637L16.3528 6.35283L18.941 1.76465H16.9998L15.2351 4.9999ZM2.05884 7.64693L2.58825 5.29402L0.176514 7.64693H2.05884Z" fill="#06435E"/>
<path fill-rule="evenodd" clip-rule="evenodd" d="M20.2938 7.64672L20.8232 5.17617V5.23499L18.4115 7.64672H20.2938ZM27.6467 3.82324C26.0585 3.94089 24.9997 4.41147 24.7644 5.58793C24.3526 7.94084 26.9408 7.99966 27.9408 6.94085L27.7643 7.64672H29.6467L29.9408 6.23498L27.6467 3.82324ZM28.1761 5.70557C28.0584 6.17615 27.6467 6.35262 27.1761 6.41145C26.7643 6.41145 26.4114 6.17615 26.6467 5.70557C26.882 5.35264 27.4114 5.35263 27.8231 5.35263H28.2937C28.2349 5.29381 28.1761 5.5291 28.1761 5.70557ZM31.8819 4.17618L30.529 7.64672H32.4113L32.9407 5.29381L31.8819 4.17618Z" fill="#2273AA"/>
<path d="M34.4114 1.23485V0.411332H34.1173V0.293686H34.882V0.411332H34.5879V1.23485H34.4114ZM34.9997 1.23485V0.293686H35.1761L35.4114 0.940737C35.4114 0.99956 35.4702 1.05838 35.4702 1.05838C35.4702 0.999559 35.4702 0.99956 35.5291 0.881914L35.7643 0.234863H35.9408V1.17603H35.8232V0.352509L35.5291 1.17603H35.3526L35.0585 0.352509V1.17603H34.9997V1.23485Z" fill="#32A6CE"/>
</svg>
