<svg width="18" height="15" viewBox="0 0 18 15" fill="none" xmlns="http://www.w3.org/2000/svg">
<path d="M18 5.83333V14.1667C18 14.3877 17.9052 14.5996 17.7364 14.7559C17.5676 14.9122 17.3387 15 17.1 15H0.9C0.661305 15 0.432387 14.9122 0.263604 14.7559C0.0948211 14.5996 0 14.3877 0 14.1667V5.83333H18ZM18 4.16667H0V0.833333C0 0.61232 0.0948211 0.400358 0.263604 0.244078C0.432387 0.0877973 0.661305 0 0.9 0H17.1C17.3387 0 17.5676 0.0877973 17.7364 0.244078C17.9052 0.400358 18 0.61232 18 0.833333V4.16667ZM11.7 10.8333V12.5H15.3V10.8333H11.7Z" fill="#666666"/>
</svg>
