<svg width="31" height="10" viewBox="0 0 31 10" fill="none" xmlns="http://www.w3.org/2000/svg">
<path d="M24.2109 0.947849L26.5806 0.521317V9.71545H24.2109V0.947849ZM28.0023 0.947849V9.71545H30.372V0.521317L28.0023 0.947849ZM20.8935 9.71545H23.2631V3.08051H20.8935V9.71545ZM4.68526 3.98097C4.35351 3.98097 3.64262 3.93357 3.64262 3.27008C3.64262 2.5118 4.68526 2.5118 5.0644 2.5118C5.72789 2.5118 6.62835 2.70137 7.24445 2.89094L7.95534 3.1279H8.05012V0.995242L7.95534 0.947849C7.19706 0.710887 6.2966 0.426532 4.73265 0.426532C1.98389 0.521317 0.988647 2.13266 0.988647 3.50704C0.988647 4.31271 1.32039 6.16102 4.49569 6.39798C4.78004 6.39798 5.49093 6.44537 5.49093 7.10887C5.49093 7.67758 4.82744 7.96193 3.83219 7.96193C2.74217 7.96193 1.9365 7.67758 0.988647 7.44061V9.62067C1.9365 9.85763 3.07392 9.99981 4.35351 9.99981C7.05488 9.99981 8.28708 8.48325 8.28708 6.96669C8.28708 5.26056 6.9601 4.17054 4.68526 3.98097ZM19.4243 2.93833C17.1495 2.98572 16.1542 4.02836 16.1542 6.01884V9.71545H18.5239V6.72973C18.5239 5.54492 18.5239 5.0236 19.9456 4.97621V2.98572C19.9456 2.89094 19.4243 2.93833 19.4243 2.93833ZM12.8368 3.08051C12.7894 3.08051 12.3628 4.26532 11.415 5.40274V0.521317L9.04536 1.04263V9.71545H11.415V7.15626C12.3628 8.24628 12.5524 9.71545 12.5524 9.71545H15.5855C15.3012 8.7676 13.9742 6.30319 13.9742 6.30319C15.159 4.83403 15.6803 3.08051 15.7277 3.08051H12.8368ZM22.0783 2.36962C22.7418 2.36962 23.2631 1.84831 23.2631 1.18481C23.2631 0.521317 22.7418 0 22.0783 0C21.4148 0 20.8935 0.521317 20.8935 1.18481C20.8935 1.84831 21.4148 2.36962 22.0783 2.36962Z" fill="#B73091"/>
<path d="M25.1582 0.758279L26.58 0.521317V9.71545H24.2104L25.1582 0.758279ZM28.8548 0.805672L28.0018 9.71545H30.3714V0.521317L28.8548 0.805672ZM20.8929 9.71545H23.2625V3.08051H22.2673L20.8929 9.71545ZM0.988066 3.50704C0.988066 4.31271 1.31981 6.16102 4.44772 6.39798C4.73207 6.39798 5.86949 6.44537 5.86949 7.10887C5.86949 7.67758 4.73207 7.96193 3.78422 7.96193C2.69419 7.96193 1.88852 7.67758 0.940674 7.44061V9.62067C1.88852 9.85763 3.02594 9.99981 4.30554 9.99981C7.00691 9.99981 8.23911 8.48325 8.23911 6.96669C8.23911 5.26056 6.91212 4.17054 4.63728 3.98097C4.30554 3.98097 3.64204 3.93357 3.64204 3.27008C3.64204 2.5118 4.68468 2.5118 5.06382 2.5118C5.72731 2.5118 6.62777 2.70137 7.24387 2.89094L7.95476 3.1279H8.04954V0.995242L7.95476 0.947849C7.19648 0.710887 6.29602 0.426532 4.73207 0.426532L0.988066 3.50704ZM16.1536 5.92406V9.71545H18.5233V6.72973C18.5233 5.54492 18.5233 5.0236 19.945 4.97621V2.98572C19.945 2.93833 19.4237 2.93833 19.4237 2.93833L16.1536 5.92406ZM9.04478 9.71545H11.4144V7.15626C12.3623 8.24628 13.4523 9.71545 13.4523 9.71545H15.5375C15.2532 8.7676 13.9262 6.30319 13.9262 6.30319C15.111 4.83403 15.6323 3.08051 15.6797 3.08051H14.258C14.2106 3.08051 12.3623 4.26532 11.4144 5.40274V0.710887L9.04478 9.71545ZM22.0777 2.36962C22.7412 2.36962 23.2625 1.84831 23.2625 1.18481C23.2625 0.521317 22.7412 0 22.0777 0" fill="#862165"/>
</svg>
