<svg width="34" height="10" viewBox="0 0 34 10" fill="none" xmlns="http://www.w3.org/2000/svg">
<path d="M12.4663 9.738L14.1417 0.313965H16.7595L15.1365 9.738H12.4663Z" fill="#3C58BF"/>
<path d="M12.4663 9.738L14.6129 0.313965H16.7595L15.1365 9.738H12.4663Z" fill="#293688"/>
<path d="M24.6127 0.418847C24.0892 0.209424 23.2515 0 22.2044 0C19.5866 0 17.7018 1.30889 17.7018 3.1937C17.7018 4.60731 19.0107 5.34029 20.0578 5.81149C21.1049 6.28269 21.419 6.59682 21.419 7.01567C21.419 7.64394 20.5813 7.95807 19.8484 7.95807C18.8012 7.95807 18.2253 7.80101 17.3353 7.43452L16.9688 7.27745L16.6023 9.42404C17.2306 9.68581 18.3824 9.94759 19.5866 9.94759C22.3614 9.94759 24.1939 8.6387 24.1939 6.64918C24.1939 5.54971 23.5133 4.71202 21.9426 4.03139C21.0002 3.56019 20.4243 3.29841 20.4243 2.82721C20.4243 2.40836 20.8955 1.98952 21.9426 1.98952C22.8326 1.98952 23.4609 2.14659 23.9321 2.35601L24.1939 2.46072L24.6127 0.418847Z" fill="#3C58BF"/>
<path d="M24.6127 0.418847C24.0892 0.209424 23.2515 0 22.2044 0C19.5866 0 18.173 1.30889 18.173 3.1937C18.173 4.60731 19.0107 5.34029 20.0578 5.81149C21.1049 6.28269 21.419 6.59682 21.419 7.01567C21.419 7.64394 20.5813 7.95807 19.8484 7.95807C18.8012 7.95807 18.2253 7.80101 17.3353 7.43452L16.9688 7.27745L16.6023 9.42404C17.2306 9.68581 18.3824 9.94759 19.5866 9.94759C22.3614 9.94759 24.1939 8.6387 24.1939 6.64918C24.1939 5.54971 23.5133 4.71202 21.9426 4.03139C21.0002 3.56019 20.4243 3.29841 20.4243 2.82721C20.4243 2.40836 20.8955 1.98952 21.9426 1.98952C22.8326 1.98952 23.4609 2.14659 23.9321 2.35601L24.1939 2.46072L24.6127 0.418847Z" fill="#293688"/>
<path d="M29.1154 0.313965C28.4872 0.313965 28.016 0.36632 27.7542 0.994589L23.8275 9.738H26.6547L27.1783 8.16733H30.5291L30.8432 9.738H33.3563L31.1573 0.313965H29.1154ZM27.9113 6.59665C28.0683 6.12545 28.9584 3.8218 28.9584 3.8218C28.9584 3.8218 29.1678 3.24589 29.3249 2.8794L29.4819 3.76944C29.4819 3.76944 30.0055 6.12545 30.1102 6.64901H27.9113V6.59665Z" fill="#3C58BF"/>
<path d="M29.7437 0.313965C29.1154 0.313965 28.6442 0.36632 28.3825 0.994589L23.8275 9.738H26.6547L27.1783 8.16733H30.5291L30.8432 9.738H33.3563L31.1573 0.313965H29.7437ZM27.9113 6.59665C28.1207 6.0731 28.9584 3.8218 28.9584 3.8218C28.9584 3.8218 29.1678 3.24589 29.3249 2.8794L29.4819 3.76944C29.4819 3.76944 30.0055 6.12545 30.1102 6.64901H27.9113V6.59665Z" fill="#293688"/>
<path d="M7.64958 6.91117L7.3878 5.54992C6.9166 3.97925 5.39828 2.25151 3.7229 1.41381L6.07891 9.79073H8.90612L13.1469 0.366699H10.3197L7.64958 6.91117Z" fill="#3C58BF"/>
<path d="M7.64958 6.91117L7.3878 5.54992C6.9166 3.97925 5.39828 2.25151 3.7229 1.41381L6.07891 9.79073H8.90612L13.1469 0.366699H10.8433L7.64958 6.91117Z" fill="#293688"/>
<path d="M0.37207 0.313965L0.843272 0.418677C4.19404 1.20401 6.49769 3.19353 7.38774 5.54954L6.44534 1.0993C6.28827 0.471032 5.81707 0.313965 5.24116 0.313965H0.37207Z" fill="#FFBC00"/>
<path d="M0.37207 0.313965C3.72284 1.0993 6.49769 3.14118 7.38774 5.49719L6.49769 1.77993C6.34063 1.15166 5.81707 0.785166 5.24116 0.785166L0.37207 0.313965Z" fill="#F7981D"/>
<path d="M0.37207 0.313965C3.72284 1.0993 6.49769 3.14118 7.38774 5.49719L6.75947 3.45531C6.60241 2.82704 6.39298 2.19877 5.66 1.93699L0.37207 0.313965Z" fill="#ED7C00"/>
<path d="M10.2673 6.5969L8.48716 4.81681L7.64947 6.80633L7.44005 5.49743C6.96885 3.92676 5.45053 2.19902 3.77515 1.36133L6.13116 9.73825H8.95837L10.2673 6.5969ZM15.1363 9.73825L12.885 7.43459L12.4662 9.73825H15.1363ZM21.1573 6.49219C21.3667 6.70161 21.4714 6.85868 21.419 7.06811C21.419 7.69638 20.5813 8.01051 19.8484 8.01051C18.8012 8.01051 18.2253 7.85344 17.3353 7.48695L16.9688 7.32989L16.6023 9.47647C17.2306 9.73825 18.3824 10 19.5866 10C21.262 10 22.6232 9.52883 23.4086 8.69113L21.1573 6.49219ZM24.1939 9.73825H26.6546L27.1782 8.16758H30.5289L30.8431 9.73825H33.3561L32.4661 5.91628L29.3248 2.87964L29.4818 3.71734C29.4818 3.71734 30.0054 6.07335 30.1101 6.5969H27.9111C28.1206 6.07335 28.9583 3.82205 28.9583 3.82205C28.9583 3.82205 29.1677 3.24614 29.3248 2.87964" fill="#051244"/>
</svg>
